grf
version=1
nRows=19
nColumns=37
inDegrees=no
endheader
time	ground_force_1_vx	ground_force_1_vy	ground_force_1_vz	ground_force_1_px	ground_force_1_py	ground_force_1_pz	ground_moment_1_mx	ground_moment_1_my	ground_moment_1_mz	ground_force_2_vx	ground_force_2_vy	ground_force_2_vz	ground_force_2_px	ground_force_2_py	ground_force_2_pz	ground_moment_2_mx	ground_moment_2_my	ground_moment_2_mz	ground_force_3_vx	ground_force_3_vy	ground_force_3_vz	ground_force_3_px	ground_force_3_py	ground_force_3_pz	ground_moment_3_mx	ground_moment_3_my	ground_moment_3_mz	ground_force_4_vx	ground_force_4_vy	ground_force_4_vz	ground_force_4_px	ground_force_4_py	ground_force_4_pz	ground_moment_4_mx	ground_moment_4_my	ground_moment_4_mz
      0.00000000	      0.00000000	     -0.00000000	      0.00000000	      0.00000000	      0.00000000	      0.00000000	      0.00000000	      0.00000000	      0.00000000	      1.45976102	     38.02631760	   -465.73187256	   -375.60512157	  -1065.37294109	      0.00000000	      0.00000000	      0.00000000	   1625.15207158	      3.37100653	    -37.66165191	   -357.73568726	   -368.23207583	   -753.09115128	      0.00000000	      0.00000000	     -0.00000000	   -346.43052624	      0.00000000	     -0.00000000	      0.00000000	      0.00000000	      0.00000000	      0.00000000	      0.00000000	      0.00000000	      0.00000000
      0.01000000	      0.00000000	     -0.00000000	      0.00000000	      0.00000000	      0.00000000	      0.00000000	      0.00000000	      0.00000000	      0.00000000	      1.84874845	     38.26538849	   -464.17614746	   -375.55828894	  -1064.66423048	      0.00000000	      0.00000000	      0.00000000	   1970.52022533	      2.95150669	    -37.34024455	   -357.64221191	   -367.61229686	   -752.13887364	      0.00000000	     -0.00000000	     -0.00000000	   -360.37040632	      0.00000000	     -0.00000000	      0.00000000	      0.00000000	      0.00000000	      0.00000000	      0.00000000	      0.00000000	      0.00000000
      0.02000000	      0.00000000	     -0.00000000	      0.00000000	      0.00000000	      0.00000000	      0.00000000	      0.00000000	      0.00000000	      0.00000000	      1.45228875	     38.32607269	   -462.90594482	   -375.26838656	  -1063.77868731	      0.00000000	      0.00000000	      0.00000000	   1899.81597979	      2.23811539	    -37.27175160	   -356.70623779	   -366.47028934	   -751.92646274	      0.00000000	      0.00000000	     -0.00000000	   -274.22624530	      0.00000000	     -0.00000000	      0.00000000	      0.00000000	      0.00000000	      0.00000000	      0.00000000	      0.00000000	      0.00000000
      0.03000000	      0.00000000	     -0.00000000	      0.00000000	      0.00000000	      0.00000000	      0.00000000	      0.00000000	      0.00000000	      0.00000000	      0.76410818	     38.39001465	   -463.49877930	   -374.30850712	  -1064.90077699	      0.00000000	      0.00000000	      0.00000000	   1648.51074641	      1.91583942	    -36.98230379	   -354.70864868	   -366.30010958	   -752.72236251	      0.00000000	      0.00000000	     -0.00000000	   -270.45291641	      0.00000000	     -0.00000000	      0.00000000	      0.00000000	      0.00000000	      0.00000000	      0.00000000	      0.00000000	      0.00000000
      0.04000000	      0.00000000	     -0.00000000	      0.00000000	      0.00000000	      0.00000000	      0.00000000	      0.00000000	      0.00000000	      0.00000000	      0.26763153	     38.80357742	   -459.73956299	   -375.32955471	  -1063.39695113	      0.00000000	      0.00000000	      0.00000000	   1753.21132434	      1.60034096	    -36.89020552	   -352.39172363	   -365.52622669	   -753.24679860	      0.00000000	      0.00000000	      0.00000000	   -311.05007148	      0.00000000	     -0.00000000	      0.00000000	      0.00000000	      0.00000000	      0.00000000	      0.00000000	      0.00000000	      0.00000000
      0.05000000	      0.00000000	     -0.00000000	      0.00000000	      0.00000000	      0.00000000	      0.00000000	      0.00000000	      0.00000000	      0.00000000	     -0.38859370	     38.91826248	   -461.24105835	   -374.63124014	  -1064.86098416	      0.00000000	      0.00000000	      0.00000000	   1820.43715198	      0.76658217	    -37.03845984	   -351.25976562	   -365.64445922	   -753.25221701	      0.00000000	      0.00000000	     -0.00000000	   -179.79639419	      0.00000000	     -0.00000000	      0.00000000	      0.00000000	      0.00000000	      0.00000000	      0.00000000	      0.00000000	      0.00000000
      0.06000000	      0.00000000	     -0.00000000	      0.00000000	      0.00000000	      0.00000000	      0.00000000	      0.00000000	      0.00000000	      0.00000000	     -0.44042388	     38.83208466	   -460.42150879	   -374.08684245	  -1065.18537012	      0.00000000	      0.00000000	      0.00000000	   1779.08867920	      0.52910284	    -37.08567815	   -350.52334595	   -364.27365751	   -753.00682682	      0.00000000	      0.00000000	     -0.00000000	   -191.52255156	      0.00000000	     -0.00000000	      0.00000000	      0.00000000	      0.00000000	      0.00000000	      0.00000000	      0.00000000	      0.00000000
      0.07000000	      0.00000000	     -0.00000000	      0.00000000	      0.00000000	      0.00000000	      0.00000000	      0.00000000	      0.00000000	      0.00000000	     -0.65596277	     38.50696182	   -458.66650391	   -374.09472731	  -1064.73158219	      0.00000000	      0.00000000	      0.00000000	   1839.38116853	      0.76981480	    -37.41994102	   -350.79660034	   -364.47491653	   -751.94372995	      0.00000000	      0.00000000	     -0.00000000	   -231.15082443	      0.00000000	     -0.00000000	      0.00000000	      0.00000000	      0.00000000	      0.00000000	      0.00000000	      0.00000000	      0.00000000
      0.08000000	      0.00000000	     -0.00000000	      0.00000000	      0.00000000	      0.00000000	      0.00000000	      0.00000000	      0.00000000	      0.00000000	     -0.50632954	     38.49951935	   -459.38208008	   -373.32172708	  -1064.89243682	      0.00000000	      0.00000000	      0.00000000	   1988.64230216	      0.65238012	    -37.41986853	   -350.55908203	   -363.69646006	   -752.96207649	      0.00000000	      0.00000000	     -0.00000000	   -128.08488840	      0.00000000	     -0.00000000	      0.00000000	      0.00000000	      0.00000000	      0.00000000	      0.00000000	      0.00000000	      0.00000000
      0.09000000	      0.00000000	     -0.00000000	      0.00000000	      0.00000000	      0.00000000	      0.00000000	      0.00000000	      0.00000000	      0.00000000	     -0.74712795	     38.53330231	   -457.47399902	   -373.31086045	  -1064.17799557	      0.00000000	      0.00000000	      0.00000000	   1941.78709980	      0.82710677	    -37.59133155	   -350.21932983	   -364.11687846	   -752.66700020	      0.00000000	      0.00000000	     -0.00000000	   -245.82700409	      0.00000000	     -0.00000000	      0.00000000	      0.00000000	      0.00000000	      0.00000000	      0.00000000	      0.00000000	      0.00000000
      0.10000000	      0.00000000	     -0.00000000	      0.00000000	      0.00000000	      0.00000000	      0.00000000	      0.00000000	      0.00000000	      0.00000000	     -0.77791345	     38.05664825	   -460.08648682	   -372.47457853	  -1066.11134182	      0.00000000	      0.00000000	      0.00000000	   1855.66077677	      0.97581533	    -37.74676522	   -349.83111572	   -363.32901635	   -753.26581487	      0.00000000	     -0.00000000	     -0.00000000	   -312.54538180	      0.00000000	     -0.00000000	      0.00000000	      0.00000000	      0.00000000	      0.00000000	      0.00000000	      0.00000000	      0.00000000
      0.11000000	      0.00000000	     -0.00000000	      0.00000000	      0.00000000	      0.00000000	      0.00000000	      0.00000000	      0.00000000	      0.00000000	     -1.36728799	     38.18055344	   -456.62564087	   -372.45544854	  -1063.63980928	      0.00000000	      0.00000000	      0.00000000	   1575.95691007	      1.00466241	    -37.95176706	   -351.01943970	   -363.62314980	   -752.03410355	      0.00000000	      0.00000000	     -0.00000000	   -246.29643625	      0.00000000	     -0.00000000	      0.00000000	      0.00000000	      0.00000000	      0.00000000	      0.00000000	      0.00000000	      0.00000000
      0.12000000	      0.00000000	     -0.00000000	      0.00000000	      0.00000000	      0.00000000	      0.00000000	      0.00000000	      0.00000000	      0.00000000	     -0.95377082	     37.82209778	   -457.49008179	   -372.05383324	  -1065.31119039	      0.00000000	     -0.00000000	      0.00000000	   1733.55535247	      0.91402874	    -37.80168160	   -351.60348511	   -363.74603930	   -751.43554200	      0.00000000	      0.00000000	     -0.00000000	   -181.73970305	      0.00000000	     -0.00000000	      0.00000000	      0.00000000	      0.00000000	      0.00000000	      0.00000000	      0.00000000	      0.00000000
      0.13000000	      0.00000000	     -0.00000000	      0.00000000	      0.00000000	      0.00000000	      0.00000000	      0.00000000	      0.00000000	      0.00000000	     -0.68153441	     37.94321823	   -457.48956299	   -371.84591840	  -1065.59022729	      0.00000000	      0.00000000	      0.00000000	   1742.84931717	      1.44654443	    -37.98011792	   -351.95190430	   -362.98803619	   -751.79404900	      0.00000000	      0.00000000	     -0.00000000	   -384.44138563	      0.00000000	     -0.00000000	      0.00000000	      0.00000000	      0.00000000	      0.00000000	      0.00000000	      0.00000000	      0.00000000
      0.14000000	      0.00000000	     -0.00000000	      0.00000000	      0.00000000	      0.00000000	      0.00000000	      0.00000000	      0.00000000	      0.00000000	     -0.68436056	     37.94149780	   -455.25878906	   -371.73120542	  -1064.93595247	      0.00000000	      0.00000000	      0.00000000	   1962.38818328	      1.38873699	    -37.89000714	   -349.95797729	   -363.19426571	   -753.31016137	      0.00000000	      0.00000000	     -0.00000000	   -382.65678749	      0.00000000	     -0.00000000	      0.00000000	      0.00000000	      0.00000000	      0.00000000	      0.00000000	      0.00000000	      0.00000000
      0.15000000	      0.00000000	     -0.00000000	      0.00000000	      0.00000000	      0.00000000	      0.00000000	      0.00000000	      0.00000000	      0.00000000	     -1.04219532	     37.79129028	   -454.06890869	   -370.92679057	  -1065.98827940	      0.00000000	     -0.00000000	     -0.00000000	   1839.50491851	      1.32924976	    -37.92037975	   -350.08456421	   -363.12058488	   -752.19756027	      0.00000000	      0.00000000	     -0.00000000	   -332.09267226	      0.00000000	     -0.00000000	      0.00000000	      0.00000000	      0.00000000	      0.00000000	      0.00000000	      0.00000000	      0.00000000
      0.16000000	      0.00000000	     -0.00000000	      0.00000000	      0.00000000	      0.00000000	      0.00000000	      0.00000000	      0.00000000	      0.00000000	     -1.18835890	     38.03008652	   -449.71798706	   -371.50908959	  -1064.45523273	      0.00000000	     -0.00000000	     -0.00000000	   1795.84474448	      1.45092504	    -37.62385572	   -349.84524536	   -363.30902346	   -753.49166284	      0.00000000	      0.00000000	     -0.00000000	   -348.37526835	      0.00000000	     -0.00000000	      0.00000000	      0.00000000	      0.00000000	      0.00000000	      0.00000000	      0.00000000	      0.00000000
      0.17000000	      0.00000000	     -0.00000000	      0.00000000	      0.00000000	      0.00000000	      0.00000000	      0.00000000	      0.00000000	      0.00000000	     -1.45753837	     37.91056442	   -448.30477905	   -370.63494715	  -1064.81603182	      0.00000000	      0.00000000	      0.00000000	   1765.30934262	      1.65827967	    -38.00843826	   -350.31414795	   -363.46917479	   -752.45499447	      0.00000000	      0.00000000	     -0.00000000	   -441.06371155	      0.00000000	     -0.00000000	      0.00000000	      0.00000000	      0.00000000	      0.00000000	      0.00000000	      0.00000000	      0.00000000
      0.18000000	      0.00000000	     -0.00000000	      0.00000000	      0.00000000	      0.00000000	      0.00000000	      0.00000000	      0.00000000	      0.00000000	     -1.48653233	     37.76034546	   -447.00320435	   -370.14456585	  -1065.05787334	      0.00000000	     -0.00000000	     -0.00000000	   1777.12857416	      2.12987734	    -38.00749607	   -351.48361206	   -362.96479410	   -751.95030539	      0.00000000	      0.00000000	     -0.00000000	   -523.22198164	      0.00000000	     -0.00000000	      0.00000000	      0.00000000	      0.00000000	      0.00000000	      0.00000000	      0.00000000	      0.00000000
